<?xml version="1.0" encoding="UTF-8" standalone="no"?>
<svg
   xmlns:dc="http://purl.org/dc/elements/1.1/"
   xmlns:cc="http://creativecommons.org/ns#"
   xmlns:rdf="http://www.w3.org/1999/02/22-rdf-syntax-ns#"
   xmlns:svg="http://www.w3.org/2000/svg"
   xmlns="http://www.w3.org/2000/svg"
   xmlns:sodipodi="http://sodipodi.sourceforge.net/DTD/sodipodi-0.dtd"
   xmlns:inkscape="http://www.inkscape.org/namespaces/inkscape"
   version="1.1"
   id="Layer_1"
   x="0"
   y="0"
   viewBox="0 0 245.1 48"
   style="enable-background:new 0 0 245.1 48"
   xml:space="preserve"
   sodipodi:docname="image.svg"
   inkscape:version="1.0.2-2 (e86c870879, 2021-01-15)"><metadata
     id="metadata25"><rdf:RDF><cc:Work
         rdf:about=""><dc:format>image/svg+xml</dc:format><dc:type
           rdf:resource="http://purl.org/dc/dcmitype/StillImage" /><dc:title></dc:title></cc:Work></rdf:RDF></metadata><defs
     id="defs23" /><sodipodi:namedview
     pagecolor="#ffffff"
     bordercolor="#666666"
     borderopacity="1"
     objecttolerance="10"
     gridtolerance="10"
     guidetolerance="10"
     inkscape:pageopacity="0"
     inkscape:pageshadow="2"
     inkscape:window-width="2560"
     inkscape:window-height="1369"
     id="namedview21"
     showgrid="false"
     inkscape:zoom="4"
     inkscape:cx="155.91319"
     inkscape:cy="22.059602"
     inkscape:window-x="-8"
     inkscape:window-y="460"
     inkscape:window-maximized="1"
     inkscape:current-layer="Layer_1"
     inkscape:document-rotation="0" /><style
     id="style2">.st0-logo{fill:none}.st1-logo{fill:#fdfeff}.st2-logo{fill:#a14eff}.st5-logo{fill:#175fff}</style><path
     class="st0-logo"
     d="m 181.18568,19.4 h -0.9 v 1.8 h 0.8 c 0.7,0 1.1,-0.4 1.1,-0.9 0,-0.6 -0.3,-0.9 -1,-0.9 z m 5.6,0.3 -0.7,2.3 h 1.5 z M 36.185678,19.3 c -0.2,-0.8 -0.4,-1.6 -0.9,-2.3 -0.4,0.7 -0.7,1.3 -0.8,2.1 -0.3,1.4 -0.6,2.9 -0.6,4.4 v 0.6 c 0.1,2 0.6,4 1.4,5.8 0.1,-0.2 0.2,-0.5 0.3,-0.7 0.7,-1.7 1.1,-3.4 1.1,-5.3 v -0.1 c 0.1,-1.5 -0.1,-3 -0.5,-4.5 z M 150.98568,20 c 0,-0.4 -0.3,-0.7 -0.9,-0.7 h -0.8 v 1.4 h 0.8 c 0.5,0 0.9,-0.2 0.9,-0.7 z m -20.1,1 c -1.2,-0.1 -2.3,0.8 -2.6,1.9 h 5 c -0.1,-1.2 -1.2,-2 -2.4,-1.9 z m 19.3,0.6 h -0.9 v 1.5 h 0.9 c 0.6,0 1.1,-0.2 1.1,-0.7 0,-0.5 -0.4,-0.8 -1.1,-0.8 z M 57.685678,21 c -1.6,0 -2.9,1.2 -2.9,3.2 0,1.8 1.2,3.1 2.9,3.1 1.6,0 2.9,-1.3 2.9,-2.9 v -0.2 c 0,-1.8 -1.2,-3.2 -2.9,-3.2 z m 160.800002,-1.3 -0.8,2.3 h 1.6 z m -14,-0.3 h -0.8 v 1.8 h 0.8 c 0.7,0 1.1,-0.4 1.1,-0.9 -0.1,-0.6 -0.5,-0.9 -1.1,-0.9 z"
     id="path4" /><path
     class="st2-logo"
     d="m 7.485678,22.2 c 1.1,0 1.9,0.8 1.9,1.9 0,-7.6 6.1,-13.7 13.7,-13.7 2.1,0 4.1,0.5 6,1.4 0.3,0.1 0.6,0.2 0.8,0.2 1.1,0 1.9,-0.9 1.9,-1.9 0,-0.7 -0.4,-1.3 -1.1,-1.7 -8.6,-4.2 -19.1,-0.7 -23.3,8.1 -1.2,2.4 -1.8000003,5 -1.8000003,7.7 0,-1.1 0.9000003,-2 1.9000003,-2 z"
     id="path8" /><path
     d="m 21.085678,39.7 c 0,-1.1 0.8,-1.9 1.9,-1.9 -3.6,0 -7.1,-1.4 -9.6,-4 -2.6,-2.6 -3.9,-6.1 -3.9,-9.7 -0.1,-1.1 -0.9,-1.9 -2,-1.8 -1,0.1 -1.8000003,0.8 -1.8000003,1.8 0,2.3 0.4000003,4.7 1.3000003,6.8 0.8,2.1 2.1,3.9 3.7,5.6 3.2,3.3 7.7,5.2 12.3,5.2 -1.1,0 -1.9,-0.9 -1.9,-2 z"
     style="fill:#00cbff"
     id="path10" /><path
     d="m 37.485678,33.8 c 0.7,-0.9 1.2,-2 1.7,-3.1 0.9,-2.2 1.4,-4.5 1.4,-6.8 v -0.1 0.1 c 0,1.1 -0.8,1.9 -1.8,1.9 -1,0 -1.9,-0.8 -1.9,-1.8 0,1.8 -0.4,3.6 -1.1,5.3 -0.1,0.2 -0.2,0.5 -0.3,0.7 -0.7,1.3 -1.5,2.5 -2.5,3.6 l -0.2,0.2 c -1.3,1.3 -2.8,2.3 -4.4,3 -1.7,0.7 -3.5,1.1 -5.3,1.1 -1.1,0.1 -1.9,0.9 -1.8,2 0.1,1 0.8,1.8 1.8,1.8 2.3,0 4.7,-0.5 6.8,-1.4 1.9,-0.8 3.7,-2 5.2,-3.5 l 0.4,-0.4 c 0.7,-0.9 1.4,-1.7 2,-2.6 z"
     style="fill:#84f22e"
     id="path12" /><path
     class="st2-logo"
     d="m 35.385678,13 z m 0,0 z"
     id="path14" /><path
     class="st5-logo"
     d="m 33.985678,24.1 v -0.6 c 0,-1.5 0.2,-2.9 0.6,-4.4 0.2,-0.7 0.4,-1.4 0.8,-2.1 0.4,0.7 0.7,1.4 0.9,2.3 0.3,1.5 0.6,3 0.6,4.6 V 24 c 0,1.1 0.9,1.9 1.9,1.8 1,-0.1 1.9,-0.9 1.8,-1.9 v -0.1 c 0,-2.1 -0.3,-4.2 -0.9,-6.2 -0.3,-1 -0.7,-1.9 -1.3,-2.8 -0.7,-1 -1.8,-1.7 -3,-1.7 -1.2,0 -2.3,0.6 -2.9,1.6 -0.6,0.8 -1.1,1.8 -1.3,2.7 -0.6,2 -0.9,4.1 -0.9,6.2 v 0.8 c 0.2,3.2 1.1,6.4 2.7,9.2 1,-1.1 1.8,-2.3 2.5,-3.6 -1,-1.9 -1.4,-3.9 -1.5,-5.9 z m 8.5,13.7 c -1.5,-0.4 -3.4,-1.9 -5,-4.1 -0.6,0.9 -1.3,1.8 -2.1,2.6 l -0.4,0.4 c 0.8,0.9 1.7,1.8 2.6,2.7 1.2,1 2.5,1.7 3.9,2.1 0.2,0.1 0.3,0.1 0.5,0.1 1.1,0 1.9,-0.9 1.9,-1.9 0.1,-0.9 -0.5,-1.7 -1.4,-1.9 z"
     id="path16" /><path
     class="st0-logo"
     d="M -6.0143223,-5 H 238.48568 V 53 H -6.0143223 Z"
     id="path18" /><g
     id="g948"
     transform="matrix(1.8881829,0,0,1.8881829,194.82775,-40.461803)"><path
       style="fill:#175fff;fill-opacity:1;stroke-width:0.0319602"
       d="m 20.353022,30.499283 c -0.125167,-0.05537 -0.203856,-0.165395 -0.203856,-0.285006 0,-0.113404 0.269773,-0.745677 0.360034,-0.843842 0.08186,-0.089 0.251928,-0.123397 0.369494,-0.07471 0.104742,0.0434 0.197331,0.185407 0.197331,0.302739 0,0.120664 -0.318291,0.815943 -0.396729,0.866625 -0.107821,0.06966 -0.219616,0.08138 -0.326267,0.03419 z"
       id="path929" /><path
       style="fill:#175fff;fill-opacity:1;stroke-width:0.0319602"
       d="m 21.837501,32.089562 c -0.104328,-0.0669 -0.154253,-0.1696 -0.154253,-0.317307 0,-0.09054 0.02766,-0.138446 0.147062,-0.254465 0.2502,-0.243165 0.475057,-0.425065 0.570138,-0.461216 0.191794,-0.07292 0.433293,0.104903 0.433047,0.318874 -1.26e-4,0.116873 -0.07873,0.216147 -0.390422,0.493124 -0.310844,0.276233 -0.443783,0.324746 -0.605572,0.220994 z"
       id="path927" /><path
       style="fill:#175fff;fill-opacity:1;stroke-width:0.0319602"
       d="m 23.204214,33.865892 c -0.11531,-0.137044 -0.113243,-0.314598 0.0051,-0.444612 0.07724,-0.08482 0.134333,-0.105845 0.471413,-0.173575 0.210931,-0.04239 0.423227,-0.06938 0.471759,-0.06001 0.220765,0.04269 0.324574,0.36356 0.174195,0.538398 -0.05898,0.06858 -0.137917,0.09957 -0.407492,0.160065 -0.18389,0.04126 -0.401372,0.0757 -0.483307,0.07653 -0.128039,0.0013 -0.160594,-0.01241 -0.231708,-0.09682 z"
       id="path925" /><path
       id="path890"
       style="fill:#175fff;fill-opacity:1;stroke-width:0.0319602"
       d="m 18.61508,38.996097 c -0.02635,-0.009 -0.366492,-0.177457 -0.755834,-0.374289 l -0.707902,-0.357865 -0.121123,0.05776 c -0.293521,0.139985 -0.721119,0.0944 -0.998301,-0.106373 -0.192528,-0.13948 -1.21291,-1.35978 -1.309806,-1.566445 -0.172334,-0.367594 -0.09231,-0.795647 0.209783,-1.121935 0.279472,-0.301861 0.458411,-0.358174 0.643438,-0.202477 0.187865,0.158067 0.160755,0.364291 -0.07745,0.589338 -0.167716,0.158457 -0.216996,0.285386 -0.166429,0.428574 0.0394,0.11152 0.950582,1.210427 1.103222,1.330494 0.08926,0.07021 0.232289,0.08124 0.335689,0.02592 0.09273,-0.04962 0.981801,-0.794622 0.981801,-0.822695 0,-0.01218 -0.38832,-0.480426 -0.862927,-1.040409 -0.824898,-0.973283 -0.862901,-1.023924 -0.862418,-1.149165 4.43e-4,-0.116482 0.148578,-0.370342 1.33523,-2.288328 1.193954,-1.929768 1.347263,-2.163481 1.453501,-2.215785 0.23669,-0.116529 0.158158,-0.193035 2.331833,2.271354 1.094538,1.240926 2.015147,2.293381 2.045795,2.338788 0.102697,0.152139 0.05121,0.386723 -0.101893,0.464334 -0.04489,0.02275 -1.109993,0.46972 -2.366824,0.993224 l -2.285156,0.951827 -0.343572,0.288265 c -0.188967,0.158549 -0.343418,0.296586 -0.343225,0.306757 1.86e-4,0.01011 0.233897,0.13755 0.51935,0.283052 0.58965,0.30057 0.67596,0.317353 0.914155,0.177756 l 0.145063,-0.08503 -0.07759,-0.0508 c -0.16551,-0.108372 -0.283201,-0.233107 -0.302396,-0.320499 -0.02833,-0.128911 0.05477,-0.307164 0.171254,-0.367392 0.189818,-0.09817 0.216055,-0.08751 0.764927,0.310709 0.292775,0.212402 0.373865,0.326527 0.344232,0.484458 -0.02541,0.135459 -0.09514,0.205417 -0.42718,0.428569 -0.455606,0.306197 -0.526173,0.334748 -0.853658,0.345403 -0.158205,0.0051 -0.309213,0.002 -0.335581,-0.0071 z m 1.713051,-3.305905 c 1.052935,-0.439391 1.939024,-0.809728 1.96908,-0.822975 0.04425,-0.01953 -0.261775,-0.38313 -1.607165,-1.909739 -0.913995,-1.037109 -1.672073,-1.888884 -1.684615,-1.892833 -0.02068,-0.0064 -2.192917,3.478416 -2.217665,3.557607 -0.01425,0.04535 1.531323,1.866829 1.583974,1.866829 0.02304,0 0.903452,-0.359501 1.956391,-0.798889 z"
       sodipodi:nodetypes="sscsssssssssssssssssscsssscssssssssssssscss" /></g><text
     xml:space="preserve"
     style="font-style:normal;font-variant:normal;font-weight:normal;font-stretch:normal;font-size:14.1836px;line-height:1.25;font-family:Tahoma;-inkscape-font-specification:Tahoma;word-spacing:0px;fill:#1a1a1a;fill-opacity:1;stroke-width:0.354589"
     x="60.058537"
     y="28.356102"
     id="text942"><tspan
       sodipodi:role="line"
       id="tspan940"
       x="60.058537"
       y="28.356102"
       style="fill:#1a1a1a;fill-opacity:1;stroke-width:0.354589">CAMPAIGN GENERATOR</tspan></text></svg>
