<svg xmlns="http://www.w3.org/2000/svg" version="1.1" id="Layer_1" x="0" y="0" viewBox="0 0 245.1 48" xml:space="preserve"><style id="style2">.st0-logo{fill:none}.st2-logo{fill:#a14eff}</style><path class="st0-logo" d="M181.186 19.4h-.9v1.8h.8c.7 0 1.1-.4 1.1-.9 0-.6-.3-.9-1-.9zm5.6.3-.7 2.3h1.5zm-150.6-.4c-.2-.8-.4-1.6-.9-2.3-.4.7-.7 1.3-.8 2.1-.3 1.4-.6 2.9-.6 4.4v.6c.1 2 .6 4 1.4 5.8.1-.2.2-.5.3-.7.7-1.7 1.1-3.4 1.1-5.3v-.1c.1-1.5-.1-3-.5-4.5zm114.8.7c0-.4-.3-.7-.9-.7h-.8v1.4h.8c.5 0 .9-.2.9-.7zm-20.1 1c-1.2-.1-2.3.8-2.6 1.9h5c-.1-1.2-1.2-2-2.4-1.9zm19.3.6h-.9v1.5h.9c.6 0 1.1-.2 1.1-.7 0-.5-.4-.8-1.1-.8zm-92.5-.6c-1.6 0-2.9 1.2-2.9 3.2 0 1.8 1.2 3.1 2.9 3.1 1.6 0 2.9-1.3 2.9-2.9v-.2c0-1.8-1.2-3.2-2.9-3.2zm160.8-1.3-.8 2.3h1.6zm-14-.3h-.8v1.8h.8c.7 0 1.1-.4 1.1-.9-.1-.6-.5-.9-1.1-.9z" id="path4"/><path class="st2-logo" d="M7.486 22.2c1.1 0 1.9.8 1.9 1.9 0-7.6 6.1-13.7 13.7-13.7 2.1 0 4.1.5 6 1.4.3.1.6.2.8.2 1.1 0 1.9-.9 1.9-1.9 0-.7-.4-1.3-1.1-1.7-8.6-4.2-19.1-.7-23.3 8.1-1.2 2.4-1.8 5-1.8 7.7 0-1.1.9-2 1.9-2z" id="path8"/><path d="M21.086 39.7c0-1.1.8-1.9 1.9-1.9-3.6 0-7.1-1.4-9.6-4-2.6-2.6-3.9-6.1-3.9-9.7-.1-1.1-.9-1.9-2-1.8-1 .1-1.8.8-1.8 1.8 0 2.3.4 4.7 1.3 6.8.8 2.1 2.1 3.9 3.7 5.6 3.2 3.3 7.7 5.2 12.3 5.2-1.1 0-1.9-.9-1.9-2z" id="path10" fill="#00cbff"/><path d="M37.486 33.8c.7-.9 1.2-2 1.7-3.1.9-2.2 1.4-4.5 1.4-6.8v-.1.1c0 1.1-.8 1.9-1.8 1.9s-1.9-.8-1.9-1.8c0 1.8-.4 3.6-1.1 5.3-.1.2-.2.5-.3.7-.7 1.3-1.5 2.5-2.5 3.6l-.2.2c-1.3 1.3-2.8 2.3-4.4 3-1.7.7-3.5 1.1-5.3 1.1-1.1.1-1.9.9-1.8 2 .1 1 .8 1.8 1.8 1.8 2.3 0 4.7-.5 6.8-1.4 1.9-.8 3.7-2 5.2-3.5l.4-.4c.7-.9 1.4-1.7 2-2.6z" id="path12" fill="#84f22e"/><path class="st2-logo" d="M35.386 13zm0 0z" id="path14"/><path d="M33.986 24.1v-.6c0-1.5.2-2.9.6-4.4.2-.7.4-1.4.8-2.1.4.7.7 1.4.9 2.3.3 1.5.6 3 .6 4.6v.1c0 1.1.9 1.9 1.9 1.8 1-.1 1.9-.9 1.8-1.9v-.1c0-2.1-.3-4.2-.9-6.2-.3-1-.7-1.9-1.3-2.8-.7-1-1.8-1.7-3-1.7s-2.3.6-2.9 1.6c-.6.8-1.1 1.8-1.3 2.7-.6 2-.9 4.1-.9 6.2v.8c.2 3.2 1.1 6.4 2.7 9.2 1-1.1 1.8-2.3 2.5-3.6-1-1.9-1.4-3.9-1.5-5.9zm8.5 13.7c-1.5-.4-3.4-1.9-5-4.1-.6.9-1.3 1.8-2.1 2.6l-.4.4c.8.9 1.7 1.8 2.6 2.7 1.2 1 2.5 1.7 3.9 2.1.2.1.3.1.5.1 1.1 0 1.9-.9 1.9-1.9.1-.9-.5-1.7-1.4-1.9z" id="path16" fill="#175fff"/><path class="st0-logo" d="M-6.014-5h244.5v58h-244.5Z" id="path18"/><g id="g948" transform="matrix(1.88818 0 0 1.88818 194.828 -40.462)"><path d="M20.353 30.5c-.125-.056-.204-.166-.204-.286 0-.113.27-.745.36-.844a.36.36 0 0 1 .37-.074.364.364 0 0 1 .197.302c0 .121-.318.816-.397.867a.33.33 0 0 1-.326.034z" id="path929" fill="#175fff" fill-opacity="1" stroke-width=".032"/><path d="M21.838 32.09c-.105-.067-.155-.17-.155-.318 0-.09.028-.138.147-.254.25-.243.475-.425.57-.461.192-.073.434.104.433.318 0 .117-.078.217-.39.494-.31.276-.444.324-.605.22z" id="path927" fill="#175fff" fill-opacity="1" stroke-width=".032"/><path d="M23.204 33.866a.326.326 0 0 1 .005-.445c.078-.085.135-.106.472-.173.21-.043.423-.07.471-.06.221.042.325.363.175.538-.06.069-.138.1-.408.16a3.243 3.243 0 0 1-.483.077c-.128.001-.16-.013-.232-.097z" id="path925" fill="#175fff" fill-opacity="1" stroke-width=".032"/><path id="path890" d="M18.615 38.996a28.432 28.432 0 0 1-.756-.374l-.708-.358-.12.058c-.294.14-.722.094-1-.107-.192-.14-1.212-1.36-1.309-1.566-.172-.368-.092-.796.21-1.122.28-.302.458-.358.643-.203.188.159.161.365-.077.59-.168.158-.217.285-.167.428.04.112.951 1.21 1.104 1.33.089.071.232.082.335.027.093-.05.982-.795.982-.823 0-.012-.388-.48-.863-1.04-.825-.974-.863-1.024-.862-1.15 0-.116.148-.37 1.335-2.288 1.194-1.93 1.347-2.163 1.454-2.216.236-.116.158-.193 2.331 2.272a200.55 200.55 0 0 1 2.046 2.339c.103.152.051.386-.102.464-.045.023-1.11.47-2.367.993l-2.285.952-.343.288a3.884 3.884 0 0 0-.343.307c0 .01.233.138.519.283.59.3.676.317.914.178l.145-.085-.078-.051c-.165-.108-.283-.233-.302-.32a.372.372 0 0 1 .171-.368c.19-.098.216-.087.765.31.293.213.374.327.345.485-.026.136-.096.206-.428.429-.455.306-.526.335-.853.345-.159.005-.31.002-.336-.007zm1.713-3.306 1.97-.823c.043-.02-.263-.383-1.608-1.91a132.552 132.552 0 0 0-1.685-1.892c-.02-.007-2.192 3.478-2.217 3.557-.014.046 1.531 1.867 1.584 1.867.023 0 .903-.36 1.956-.799z" fill="#175fff" fill-opacity="1" stroke-width=".032"/></g><text xml:space="preserve" style="line-height:1.25;-inkscape-font-specification:Tahoma" x="60.059" y="28.356" id="text942" font-style="normal" font-variant="normal" font-weight="400" font-stretch="normal" font-size="14.184" font-family="Tahoma" word-spacing="0" fill="#1a1a1a" fill-opacity="1" stroke-width=".355"><tspan id="tspan940" x="60.059" y="28.356" fill="#1a1a1a" fill-opacity="1" stroke-width=".355">CAMPAIGN GENERATOR</tspan></text></svg>